<?xml version="1.0" encoding="utf-8"?>
<!-- Generator: Adobe Illustrator 16.0.0, SVG Export Plug-In . SVG Version: 6.00 Build 0)  -->
<!DOCTYPE svg PUBLIC "-//W3C//DTD SVG 1.1//EN" "http://www.w3.org/Graphics/SVG/1.1/DTD/svg11.dtd">
<svg version="1.1" id="Layer_1" xmlns="http://www.w3.org/2000/svg" xmlns:xlink="http://www.w3.org/1999/xlink" x="0px" y="0px"
	 width="48px" height="48px" viewBox="0 0 48 48" enable-background="new 0 0 48 48" xml:space="preserve">
<title>Icons/Services/Reload_blue</title>
<desc>Created with Sketch.</desc>
<g id="Icons_x2F_Services_x2F_Reload_x5F_blue">
	<polygon id="Fill-1" points="31.5,37 40.5,37 40.5,35 31.5,35 	"/>
	<path id="Fill-2" d="M36,27c-4.971,0-9,4.03-9,9s4.029,9,9,9s9-4.03,9-9S40.971,27,36,27 M36,29c3.859,0,7,3.141,7,7s-3.141,7-7,7
		s-7-3.141-7-7S32.141,29,36,29"/>
	<polygon id="Fill-4" points="35,40.5 37,40.5 37,31.5 35,31.5 	"/>
	<path id="Fill-6" d="M24.59,28.163c0.641-0.094,1.119-0.312,1.439-0.655s0.48-0.802,0.48-1.375c0-0.227-0.041-0.425-0.119-0.595
		c-0.08-0.17-0.191-0.321-0.33-0.455c-0.141-0.134-0.307-0.252-0.5-0.356c-0.193-0.103-0.404-0.193-0.631-0.273L24.59,28.163z
		 M23.82,17.963c-0.339,0.047-0.63,0.121-0.871,0.224c-0.24,0.104-0.433,0.229-0.584,0.375c-0.15,0.147-0.259,0.309-0.33,0.486
		c-0.07,0.177-0.105,0.365-0.105,0.564c0,0.228,0.039,0.429,0.115,0.606c0.076,0.176,0.186,0.335,0.324,0.474
		c0.141,0.141,0.307,0.266,0.5,0.375c0.194,0.111,0.407,0.209,0.641,0.295L23.82,17.963z M25.16,21.902
		c0.32,0.094,0.639,0.196,0.959,0.306c0.32,0.109,0.627,0.234,0.92,0.375c0.293,0.14,0.566,0.303,0.82,0.489
		c0.254,0.188,0.475,0.405,0.666,0.655c0.189,0.25,0.338,0.54,0.443,0.867c0.107,0.326,0.16,0.699,0.16,1.119
		c0,0.62-0.104,1.205-0.314,1.756c-0.209,0.549-0.518,1.036-0.924,1.459c-0.408,0.424-0.904,0.769-1.49,1.035
		c-0.588,0.266-1.26,0.428-2.021,0.479l-0.119,1.361c-0.014,0.174-0.086,0.33-0.221,0.469c-0.133,0.142-0.306,0.211-0.519,0.211
		h-1.01l0.189-2.109c-0.379-0.054-0.754-0.136-1.125-0.245c-0.369-0.11-0.724-0.243-1.064-0.401c-0.34-0.155-0.66-0.332-0.961-0.529
		c-0.299-0.196-0.568-0.411-0.809-0.645l0.85-1.25c0.072-0.106,0.174-0.195,0.301-0.265c0.125-0.069,0.256-0.104,0.388-0.104
		c0.155,0,0.315,0.045,0.481,0.139s0.351,0.205,0.555,0.336c0.203,0.13,0.433,0.262,0.689,0.395c0.258,0.133,0.557,0.236,0.897,0.31
		l0.378-4.149c-0.32-0.087-0.638-0.186-0.955-0.295c-0.316-0.11-0.621-0.238-0.914-0.385s-0.566-0.318-0.816-0.516
		c-0.25-0.196-0.467-0.431-0.654-0.705c-0.186-0.273-0.334-0.587-0.44-0.944c-0.107-0.357-0.16-0.768-0.16-1.235
		c0-0.521,0.104-1.026,0.311-1.515c0.205-0.49,0.507-0.929,0.904-1.315c0.396-0.387,0.885-0.705,1.465-0.955
		c0.58-0.25,1.246-0.395,2-0.435l0.109-1.19c0.014-0.173,0.09-0.329,0.227-0.465c0.136-0.137,0.306-0.205,0.513-0.205h1.021
		l-0.182,1.96c0.721,0.127,1.338,0.333,1.852,0.62c0.512,0.287,0.953,0.61,1.318,0.969l-0.68,1
		c-0.094,0.154-0.193,0.266-0.299,0.335c-0.107,0.071-0.234,0.106-0.381,0.106c-0.1,0-0.219-0.028-0.355-0.085
		c-0.137-0.057-0.287-0.127-0.455-0.21c-0.166-0.084-0.352-0.169-0.555-0.255c-0.203-0.087-0.418-0.16-0.645-0.221L25.16,21.902z"/>
	<path id="Fill-7" d="M26.139,40.851C25.437,40.938,24.726,41,24,41c-9.374,0-17-7.627-17-17c0-9.374,7.626-17,17-17
		c9.374,0,17,7.626,17,17c0,0.726-0.061,1.437-0.149,2.139c1.366,0.674,2.575,1.615,3.55,2.768C44.779,27.33,45,25.692,45,24
		c0-11.598-9.402-21-21-21C12.403,3,3,12.401,3,24c0,11.599,9.403,21,21,21c1.694,0,3.331-0.221,4.909-0.601
		C27.755,43.426,26.813,42.217,26.139,40.851"/>
</g>
</svg>
